<svg width="241" height="36" viewBox="0 0 241 36" fill="none" xmlns="http://www.w3.org/2000/svg">
<g clip-path="url(#clip0_2425_28958)">
<path d="M17.6805 34.4799C26.7133 34.4799 34.0358 27.058 34.0358 17.9027C34.0358 8.74736 26.7133 1.3255 17.6805 1.3255C8.64772 1.3255 1.3252 8.74736 1.3252 17.9027C1.3252 27.058 8.64772 34.4799 17.6805 34.4799Z" stroke="#9747FF" stroke-width="3" stroke-miterlimit="10"/>
<path d="M2.65098 27.8353C4.11508 27.8353 5.30196 26.6484 5.30196 25.1843C5.30196 23.7202 4.11508 22.5334 2.65098 22.5334C1.18688 22.5334 0 23.7202 0 25.1843C0 26.6484 1.18688 27.8353 2.65098 27.8353Z" fill="#64ED74"/>
<path d="M26.1246 35.5843C27.5887 35.5843 28.7756 34.3975 28.7756 32.9334C28.7756 31.4693 27.5887 30.2824 26.1246 30.2824C24.6605 30.2824 23.4736 31.4693 23.4736 32.9334C23.4736 34.3975 24.6605 35.5843 26.1246 35.5843Z" fill="#FF8D4D"/>
<path d="M29.3785 8.87606C30.8426 8.87606 32.0295 7.68917 32.0295 6.22508C32.0295 4.76098 30.8426 3.5741 29.3785 3.5741C27.9144 3.5741 26.7275 4.76098 26.7275 6.22508C26.7275 7.68917 27.9144 8.87606 29.3785 8.87606Z" fill="#FF4D4D"/>
<path d="M24.6397 22.7131L17.7879 25.0745L11.0475 22.7811C11.0374 21.2736 11.0268 19.7662 11.0156 18.2588C12.028 18.6087 12.8493 18.889 13.4082 19.0793C13.9429 19.2611 16.2115 20.0137 16.69 20.1955C16.7269 20.209 16.8945 20.2736 17.125 20.3509C17.2825 20.4036 17.3613 20.4299 17.4099 20.4418C17.6873 20.5091 17.9764 20.5091 18.2538 20.4418C18.3376 20.4205 18.4918 20.3713 18.6058 20.3339C18.7667 20.2812 18.884 20.2371 18.9134 20.2269C19.1648 20.1334 19.883 19.8871 20.9775 19.5074C22.0954 19.1218 22.2094 19.0955 23.9517 18.4992L24.6557 18.2579L24.6397 22.7131Z" fill="#9747FF"/>
<path d="M26.5553 15.4065H26.2695V24.9666H26.5553V15.4065Z" fill="#9747FF"/>
<path d="M26.3972 25.5621C26.6429 25.5621 26.8422 25.3601 26.8422 25.111C26.8422 24.8619 26.6429 24.66 26.3972 24.66C26.1514 24.66 25.9521 24.8619 25.9521 25.111C25.9521 25.3601 26.1514 25.5621 26.3972 25.5621Z" fill="#9747FF"/>
<path d="M27.1759 26.8413L26.3722 26.8243L25.5693 26.8064L25.99 25.8967L26.4107 24.9861L26.7929 25.9137L27.1759 26.8413Z" fill="#9747FF"/>
<path d="M7.31626 15.7122C7.62801 16.0698 16.0831 18.7769 17.8279 19.3333L28.2917 15.725C28.3462 15.7036 28.3947 15.6693 28.4334 15.625C28.472 15.5806 28.4996 15.5275 28.5138 15.4701C28.5263 15.3977 28.5162 15.3231 28.4849 15.2568C28.4537 15.1904 28.4029 15.1356 28.3395 15.0998L17.8279 11.5119L7.72858 14.8433C7.66824 14.8543 7.37324 14.9146 7.23664 15.1652C7.19327 15.2379 7.17117 15.3215 7.17295 15.4064C7.18875 15.5208 7.23877 15.6275 7.31626 15.7122Z" fill="#9747FF"/>
</g>
<path d="M52.2379 32.2221C51.8859 32.2221 51.6441 31.8681 51.7722 31.5402L62.1996 4.84101C62.2745 4.64918 62.4594 4.52291 62.6653 4.52291H67.9327C68.1384 4.52291 68.3231 4.64891 68.3982 4.84045L78.8628 31.5397C78.9914 31.8676 78.7496 32.2221 78.3973 32.2221H73.5203C73.3152 32.2221 73.1309 32.0969 73.0554 31.9062L71.5669 28.1458C71.4914 27.9551 71.3071 27.8298 71.102 27.8298H59.4983C59.2918 27.8298 59.1066 27.9568 59.032 28.1494L57.5794 31.9026C57.5049 32.0952 57.3196 32.2221 57.1131 32.2221H52.2379ZM61.4673 22.005C61.3402 22.3327 61.582 22.6857 61.9335 22.6857H68.7002C69.0524 22.6857 69.2942 22.3314 69.1659 22.0035L65.7666 13.316C65.6005 12.8915 64.9995 12.8925 64.8348 13.3175L61.4673 22.005Z" fill="#9747FF"/>
<path d="M91.4862 32.8157C83.9909 32.8157 79.5091 28.1068 79.5091 18.3725C79.5091 8.63822 83.875 3.92935 92.993 3.92935C101.183 3.92935 105.908 6.64842 106.121 13.6361C106.13 13.9121 105.905 14.1385 105.629 14.1385H101.336C101.06 14.1385 100.839 13.9123 100.815 13.6372C100.492 9.95485 96.58 9.19221 92.9157 9.19221C87.3135 9.19221 85.2272 11.9621 85.2272 18.333C85.2272 24.7829 88.0862 27.5528 92.8384 27.5528C95.7298 27.5528 97.8488 25.5423 99.4892 22.9953C99.6986 22.6701 99.4597 22.2504 99.073 22.2504H93.1839C92.9077 22.2504 92.6839 22.0266 92.6839 21.7504V17.8437C92.6839 17.5675 92.9077 17.3437 93.1839 17.3437H105.822C106.098 17.3437 106.322 17.5675 106.322 17.8437V31.7221C106.322 31.9983 106.098 32.2221 105.822 32.2221H101.529C101.253 32.2221 101.029 31.9983 101.029 31.7221V28.3769C101.029 27.8854 100.376 27.6762 100.068 28.0594C97.8334 30.8396 94.9814 32.8157 91.4862 32.8157Z" fill="#9747FF"/>
<path d="M110.287 32.2221C110.011 32.2221 109.787 31.9983 109.787 31.7221V5.02291C109.787 4.74676 110.011 4.52291 110.287 4.52291H130.923C131.199 4.52291 131.423 4.74676 131.423 5.02291V9.16705C131.423 9.44319 131.199 9.66705 130.923 9.66705H115.812C115.536 9.66705 115.312 9.89091 115.312 10.167V15.3005C115.312 15.5766 115.536 15.8005 115.812 15.8005H129.377C129.653 15.8005 129.877 16.0243 129.877 16.3005V20.4446C129.877 20.7207 129.653 20.9446 129.377 20.9446H115.812C115.536 20.9446 115.312 21.1685 115.312 21.4446V26.578C115.312 26.8541 115.536 27.078 115.812 27.078H131.309C131.585 27.078 131.809 27.3019 131.809 27.578V31.7221C131.809 31.9983 131.585 32.2221 131.309 32.2221H110.287Z" fill="#9747FF"/>
<path d="M135.302 32.2221C135.026 32.2221 134.802 31.9983 134.802 31.7221V5.02291C134.802 4.74676 135.026 4.52291 135.302 4.52291H140.069C140.23 4.52291 140.382 4.60136 140.476 4.73342L152.401 21.5262C152.683 21.9233 153.308 21.7238 153.308 21.2367V5.02291C153.308 4.74676 153.532 4.52291 153.808 4.52291H158.333C158.609 4.52291 158.833 4.74676 158.833 5.02291V31.7221C158.833 31.9983 158.609 32.2221 158.333 32.2221H153.567C153.405 32.2221 153.253 32.1435 153.159 32.0112L141.235 15.1825C140.953 14.7848 140.327 14.9842 140.327 15.4716V31.7221C140.327 31.9983 140.103 32.2221 139.827 32.2221H135.302Z" fill="#9747FF"/>
<path d="M163.184 32.2221C162.908 32.2221 162.684 31.9983 162.684 31.7221V5.02291C162.684 4.74676 162.908 4.52291 163.184 4.52291H173.773C182.736 4.52291 187.488 9.23178 187.488 18.3725C187.488 27.5133 182.736 32.2221 173.773 32.2221H163.184ZM168.209 26.578C168.209 26.8541 168.433 27.078 168.709 27.078H173.966C178.95 27.078 181.732 24.1498 181.732 18.333C181.732 12.5953 178.95 9.66705 173.966 9.66705H168.709C168.433 9.66705 168.209 9.89091 168.209 10.167V26.578Z" fill="#9747FF"/>
<path d="M188.594 32.2221C188.242 32.2221 188.001 31.8681 188.129 31.5402L198.556 4.84101C198.631 4.64918 198.816 4.52291 199.022 4.52291H204.289C204.495 4.52291 204.68 4.64891 204.755 4.84045L215.219 31.5397C215.348 31.8676 215.106 32.2221 214.754 32.2221H209.877C209.672 32.2221 209.487 32.0969 209.412 31.9062L207.923 28.1458C207.848 27.9551 207.664 27.8298 207.459 27.8298H195.855C195.648 27.8298 195.463 27.9568 195.389 28.1494L193.936 31.9026C193.861 32.0952 193.676 32.2221 193.47 32.2221H188.594ZM197.824 22.005C197.697 22.3327 197.939 22.6857 198.29 22.6857H205.057C205.409 22.6857 205.651 22.3314 205.522 22.0035L202.123 13.316C201.957 12.8915 201.356 12.8925 201.191 13.3175L197.824 22.005Z" fill="#9747FF"/>
<path d="M217.855 32.2221C217.579 32.2221 217.355 31.9983 217.355 31.7221V5.02291C217.355 4.74676 217.579 4.52291 217.855 4.52291H229.564C237.987 4.52291 241 7.56982 241 13.5054C241 18.2348 239.054 21.1484 234.072 22.111C233.698 22.1833 233.515 22.6232 233.743 22.9274L240.128 31.4217C240.376 31.7513 240.141 32.2221 239.728 32.2221H234.256C234.099 32.2221 233.952 32.1486 233.857 32.0234L226.778 22.647C226.683 22.5218 226.536 22.4483 226.379 22.4483H223.38C223.104 22.4483 222.88 22.6721 222.88 22.9483V31.7221C222.88 31.9983 222.656 32.2221 222.38 32.2221H217.855ZM222.88 16.8041C222.88 17.0803 223.104 17.3041 223.38 17.3041H229.487C234.162 17.3041 235.244 16.0379 235.244 13.5054C235.244 10.9729 234.162 9.66705 229.487 9.66705H223.38C223.104 9.66705 222.88 9.89091 222.88 10.167V16.8041Z" fill="#9747FF"/>
<defs>
<clipPath id="clip0_2425_28958">
<rect width="35.7882" height="35.7882" fill="white"/>
</clipPath>
</defs>
</svg>
